<svg id="Слой_1" data-name="Слой 1" xmlns="http://www.w3.org/2000/svg" viewBox="0 0 1920 826"><defs><style>.cls-1{fill:#d6e1f5;}.cls-2{fill:#4a5b39;}.cls-10,.cls-13,.cls-14,.cls-15,.cls-2,.cls-21,.cls-3,.cls-4,.cls-5,.cls-6,.cls-8,.cls-9{fill-rule:evenodd;}.cls-16,.cls-3{fill:#e9f1f5;}.cls-10,.cls-11,.cls-12,.cls-13,.cls-14,.cls-15,.cls-16,.cls-17,.cls-3,.cls-4,.cls-5,.cls-6,.cls-7,.cls-8,.cls-9{stroke:#000;stroke-miterlimit:10;}.cls-11,.cls-4{fill:#d8e1e6;}.cls-5{fill:#acb7c1;}.cls-12,.cls-6{fill:#617180;}.cls-7,.cls-9{fill:#6f686b;}.cls-8{fill:#918a8d;}.cls-10{fill:#2f2534;}.cls-13{fill:#bdb7ba;}.cls-14{fill:#353d4a;}.cls-15{fill:#8a97a4;}.cls-17{fill:#9b2f12;stroke-width:3px;}.cls-18{opacity:0.74;}.cls-19{fill:#fff;}.cls-20{fill:#e6e6e6;}.cls-21{fill:#566b44;}</style></defs><title>about-bg</title><polygon id="_Контур_" data-name="&lt;Контур&gt;" class="cls-1" points="2115 -1032 2115 590 -194.55 590 -194.54 -1032 2115 -1032"/><path class="cls-2" d="M2100.92,563.5c-2.39.32-1.85.69,0,1V795.42H-125.62V526.22c39.13-2.1,85.74,3.73,110,19.4,36,23.3,141.45-5.6,183.15-12,46,0,59.35,8.22,99.72,18.83C310,563.73,403.28,542,444.26,533.64c19.1-4,34.76-18,61.05-20.53,31.22-3,55.17-5.95,83.44,3.42,54.29,18,88.69,24,158.73,24,111.56-31.27,212.91,3.21,327.65,12a336.07,336.07,0,0,0,148.56-34.23c68.79-33.38,133.47,1,201.47,13.69,46.43,0,93.35-1.71,140.42-1.71,61.5,0,116.51,20.54,179.08,20.54,40.21,0,67.57-4.13,97.69-17.12,35.28-15.21,61-3.11,106.49-17.06a67.15,67.15,0,0,1,27.61-2.48c34.17,4,117.41,12.27,121.55,13.9,30.77,12.14-31.15,25.92,2.92,32.26Z"/><path class="cls-3" d="M1336.77,673c11.28,5.43,22.23,11.71,33.9,16.29,3.89,1.53,7.83,2.9,11.82,4.17l43.68-21.83-16-37.63-76.9,37.37C1334.45,671.92,1335.61,672.46,1336.77,673Z"/><path class="cls-4" d="M1370.67,689.31c3.89,1.53,7.83,2.9,11.82,4.17l42.33-21.15-14.19-33.4-73,34.52C1348.62,678.78,1359.31,684.85,1370.67,689.31Z"/><path class="cls-5" d="M1370.67,689.31c3.89,1.53,7.83,2.9,11.82,4.17l43.68-21.83-10.25-24.14-68.18,31C1355.27,682.37,1362.81,686.23,1370.67,689.31Z"/><path class="cls-6" d="M1370.67,689.31c3.87,1.53,7.81,2.89,11.78,4.15l43.72-21.81-2.91-6.84-56.52,22.88C1368,688.25,1369.35,688.8,1370.67,689.31Z"/><path class="cls-5" d="M1370.67,689.31q4.45,1.76,9,3.26L1420,672.44l-2.29-5.4-51,20.65C1368,688.25,1369.35,688.8,1370.67,689.31Z"/><path class="cls-6" d="M1370.67,689.31c3.87,1.53,7.81,2.89,11.78,4.15l43.72-21.81-2.91-6.84-56.52,22.88C1368,688.25,1369.35,688.8,1370.67,689.31Z"/><path class="cls-3" d="M1333.29,671.39l74.63-36.27L1457,606.18l.08-13.6-9.92,5-5.61-67.6L1411.8,544.8l-53.43,96-30,28.4Q1330.81,670.24,1333.29,671.39Z"/><path class="cls-5" d="M1333.32,671.4l75.24-36.21,46.68-24.71a2.9,2.9,0,0,0,1.65-2.54l.14-12.51-9.92,5c-1.83-22.14-3.48-45.28-5.34-67.72l-26.57,13.27-53.43,96-30.32,28.65Z"/><path class="cls-6" d="M1457,602.75l-.06,5.19a2.9,2.9,0,0,1-1.65,2.54l-46.68,24.71-1.86.89-2.26.74C1425.4,624.69,1446,612.65,1457,602.75Z"/><path class="cls-4" d="M1446.84,597.1l.27,3.29,9.92-5,0,2.08-89.36,43.1C1386,628.47,1405.83,617.51,1446.84,597.1Z"/><rect class="cls-7" x="1414.58" y="629.85" width="18.57" height="33.12" transform="translate(-139.86 647.83) rotate(-24.47)"/><polygon class="cls-8" points="1427.57 632.12 1434.43 647.19 1417.56 654.95 1410.69 639.88 1427.57 632.12"/><rect class="cls-7" x="1448.3" y="619.05" width="13.22" height="26.48" transform="translate(-131.22 659.41) rotate(-24.47)"/><polygon class="cls-9" points="1457.14 621.24 1462.08 632.09 1450.48 637.42 1445.54 626.57 1457.14 621.24"/><polygon class="cls-10" points="1425.47 627.49 1443.69 622.71 1454.77 647.03 1439.18 657.64 1425.47 627.49"/><path class="cls-11" d="M1442.38,540.6l-5.39,2.7h0a2.7,2.7,0,0,0-1.19,1.22,3.47,3.47,0,0,0-.37,1.84l-3.57,51.81h0l0,.15a1.28,1.28,0,0,0,.7,1h0a1.72,1.72,0,0,0,1.34,0h0l.21-.1,12.57-6.27.08,1-12.48,6.23-.31.14a2.43,2.43,0,0,1-1.86,0h0a2,2,0,0,1-1.1-1.52c0-.08,0-.16,0-.26h0l3.57-51.8a4.92,4.92,0,0,1,.52-2.57,4,4,0,0,1,1.72-1.77h0l5.48-2.74Z"/><path class="cls-12" d="M1442.29,539.59l-6.25,3.13h0a2.75,2.75,0,0,0-1.19,1.22,3.56,3.56,0,0,0-.37,1.84l-3.57,51.8h0l0,.15a1.27,1.27,0,0,0,.71,1,1.72,1.72,0,0,0,1.34,0l.21-.1h0l13.43-6.69.09,1-13.35,6.65h0a2.08,2.08,0,0,1-.3.13,2.37,2.37,0,0,1-1.87,0,2,2,0,0,1-1.09-1.52,1.09,1.09,0,0,1,0-.26h0l3.57-51.8a4.92,4.92,0,0,1,.52-2.57,4,4,0,0,1,1.71-1.77h0l6.34-3.16Z"/><polygon class="cls-8" points="1462.08 632.09 1450.48 637.42 1445.54 626.57 1457.14 621.24 1462.08 632.09"/><polygon class="cls-13" points="1459.61 626.66 1448.01 632 1446.25 628.12 1457.85 622.78 1459.61 626.66"/><polygon class="cls-13" points="1431.35 640.42 1414.59 648.12 1411.95 642.31 1428.7 634.61 1431.35 640.42"/><polygon class="cls-9" points="1427.57 632.12 1445.41 626.47 1450.46 637.58 1434.43 647.19 1427.57 632.12"/><polygon class="cls-8" points="1428.7 634.61 1446.25 628.12 1448.01 632 1431.35 640.42 1428.7 634.61"/><polygon class="cls-14" points="1408.56 635.19 1420.76 662 1419.59 662.59 1407.63 635.63 1408.56 635.19"/><path class="cls-5" d="M1370.67,689.31c5.78,2.27,11.68,4.22,17.64,5.93L1416,686a2.55,2.55,0,0,0,.58-.27l31.54-19.41a2.83,2.83,0,0,0,1-3.69l-6.49-13-85.42,33.72C1361.67,685.48,1366.11,687.53,1370.67,689.31Z"/><path class="cls-15" d="M1416.44,685.78l.16-.09,31.54-19.41a2.83,2.83,0,0,0,1-3.69l-5.1-10.22-35.49,17.72Z"/><path class="cls-6" d="M1411.06,656a.91.91,0,1,0-.81-1.63.91.91,0,0,0,.81,1.63Z"/><path class="cls-4" d="M1410.67,655.83a.91.91,0,1,0-.81-1.63.91.91,0,0,0,.81,1.63Z"/><path class="cls-16" d="M1359.46,684.37c17.35-7.24,35.27-14.73,53.61-22.61l-.29-.66c-18.5,7.95-36.59,15.5-54.09,22.81l-.11.05Z"/><path class="cls-16" d="M1363.88,686.42l6.31-2.7c22.11-9.48,47.16-20.21,73.34-32.07l-.3-.65c-26.17,11.84-51.22,22.58-73.33,32l-6.92,3Z"/><path class="cls-16" d="M1369.24,688.73c5.83-2.61,12.15-5.43,19-8.49,15.21-6.78,34.15-15.21,56.86-25.49l-.3-.66c-22.71,10.28-41.64,18.71-56.86,25.48-7.14,3.18-13.66,6.08-19.66,8.78Z"/><path class="cls-16" d="M1375.58,691.15c17-8.52,37.63-18,71.21-33.34l-.3-.66c-34,15.5-54.75,25.06-71.85,33.66Z"/><path class="cls-16" d="M1388.69,691.81l-.35-.64,6.45-3.54c18.87-10.38,26.68-14.68,53.4-27.07l.3.65c-26.7,12.39-34.5,16.68-53.35,27Z"/><path class="cls-6" d="M1371.17,644.65a.91.91,0,1,0-.81-1.63.91.91,0,0,0,.81,1.63Z"/><path class="cls-4" d="M1370.79,644.48a.91.91,0,0,0-.82-1.63.91.91,0,1,0,.82,1.63Z"/><path class="cls-6" d="M1387.6,636.44a.91.91,0,1,0-1.22-.41A.92.92,0,0,0,1387.6,636.44Z"/><path class="cls-4" d="M1387.22,636.27a.91.91,0,1,0-1.23-.4A.91.91,0,0,0,1387.22,636.27Z"/><path class="cls-6" d="M1404,628.23a.91.91,0,1,0-1.22-.41A.91.91,0,0,0,1404,628.23Z"/><path class="cls-4" d="M1403.65,628.07a.91.91,0,0,0,.4-1.22.91.91,0,0,0-1.63.81A.93.93,0,0,0,1403.65,628.07Z"/><path class="cls-17" d="M1414.46,596.48c-2.42-.88-1.12-7.45-2.56-9.59s-8-3.37-8-5.95,6.74-3.36,8.33-5.4.73-8.68,3.21-9.4,5.28,5.37,7.71,6.25,8.48-2,9.92.15-3.47,6.69-3.56,9.27,4.52,7.45,2.93,9.48-7.43-1.24-9.91-.52-5.69,6.59-8.12,5.71Zm0,0"/><g class="cls-18"><path class="cls-19" d="M1414.76,631.64a31,31,0,0,1-5.26,7.51A58.21,58.21,0,0,0,1414.76,631.64Z"/><path class="cls-19" d="M1385,656.59s15.25-7.37,24.52-17.44A57.58,57.58,0,0,1,1385,656.59Z"/><path class="cls-19" d="M1621,29.42c31.86,1.83,35.44,17.71,35.44,17.71s18.37-12.28,50.45,10.26,29,67,29,67,19.77-12.36,46.71,7.06-.71,56.51-.71,56.51,22.62,31-3.88,38.53c0,0,23.92,27.86-5.41,45.59,0,0,66.81,33,34.6,66.72s-50.73,34.06-50.73,34.06,12.31,10.28,6.44,24.55S1752.45,414,1752.45,414s16,41.43-43.37,47.43c0,0-33.86,33.24-61.36,4s4.27-55.12,4.27-55.12-12.19-5.3-15-27.86c0,0-65.52-44.41-55.1-69.78,0,0-12.07,5.17-19.5,2.14,4.8,4.88,11.3,13.36,8.07,21.21,0,0,76,83.37,27.78,122.48,0,0,33.51,21.09-11.51,43.47,0,0,1.55,15.43-8.81,12.69,0,0,5.83,5.94,16.23,15.28s-1.94,31.57-9,29.7c0,0,5.87,24.85-26.09,34.42s-40.3-1.42-40.3-1.42-26.89,24.1-44.2,8.1S1456,576.48,1456,576.48s-20.14-5.77-31.4-19.73-17.26-7.19-23.12,7.08c-6.76,16.45,32.8,34.69,13.26,67.81,10.84-22.85-45.36-38.86-26.93-83.73,12.21-29.73,27.43-18.68,27.43-18.68s6-19.63,21-15.66,15.27,23.49,15.27,23.49,13.57,12.81,28.58,5.35,29.6,21.89,29.6,21.89,17.86-13.3,27.43-4.18c0,0,2.76-21.25-17.54-26.61s-50.89-27.07-51.23-40.79c-.14-5.57,3.07-9.45,6.91-12.1-9,1.58-21.31-.55-31.85-17.78-19.23-31.45-1.12-32.67-1.12-32.67s-32.38-4.31-30.31-30.57,19.92-21.27,19.92-21.27,8.87-16.39,23.18-16.56,19.19,12.54,19.19,12.54l15.45,9.36s-24.31-23.57-18.29-38.23c0,0-28.3,4.6-38.86-16.65,0,0-44.37-2.71-24.9-50.09,0,0-25-24.83,2.7-47.4,0,0-6.35-36,12.12-45.15s26.53-3.09,26.53-3.09,2.73-37.95,31-52,33.15,8.76,33.15,8.76,18.14-8.38,34.27,3.79,8.43,24.2,8.43,24.2,11.71,6.17,21.39-6.22-22.34-26.11-25.52-44.1,13.37-54.91,41.13-47.58C1592.92,69.89,1589.17,27.59,1621,29.42Zm-91.9,132.75c-14.55-4.7-20,6.62-26.39,4.55s-3-8.75-13.45-3.53S1472,190.58,1472,190.58s18.7-28,22.72-19.87,7.6,10.67,16.53,6.23,24.87-.76,24.87-.76S1543.69,166.87,1529.14,162.17ZM1654.07,70c4.22,8.49,16.24-1.69,20.67,7.23,0,0-5.25,5.38-1.15,6.71s24.91-2.23,38.78,25.68c0,0-3.21-24.39-22.34-36S1649.85,61.48,1654.07,70Z"/><path class="cls-20" d="M1714.8,148.76s11-16.12,3.69-30.85-18.78-10.43-18.78-10.43-3-26.13-21.37-32.07S1649,79.73,1649,79.73s-10.85-15.69-27.48-7.42-10.23,34.87-10.23,34.87,7.75-31.4,21.89-26.83,12.68,11.19,12.68,11.19a24.15,24.15,0,0,1,27.42-8.22c17.85,5.77,24.15,30.55,24.15,30.55S1723.24,124.57,1714.8,148.76Z"/><path class="cls-20" d="M1488,325.33s-17.88,11.83-32.67-6c0,0-26.1,7.25-35-10.62a31.24,31.24,0,0,1,1.93-32s-3.61-9.58-7.75-27.53,14.21-25.19,14.21-25.19-3.78-26.94,18-27.15c0,0-9.57,18.3-2.64,32.25,0,0-28.27,10.84-10.09,47.41,0,0-7.87,4.07-.55,18.8s24.15,16.72,24.15,16.72S1470.53,334,1488,325.33Z"/><path class="cls-20" d="M1591.61,245.78c18.6,4.29,22.67,26.92,22.62,33,12.62-3.93,35.44-8.78,49.73,1.57,20.6,14.9,7.54,47.66,7.54,47.66s30.35-2.67,35.75,25.59-25,38.53-25,38.53c-8.57,4.26-43.58,37.13-16.31,67.08,10.28,11.29,18.93,14.37,25.73,13.83-12.24,5.64-29,8.19-44-7.69-27.49-29.24,4.27-55.12,4.27-55.12s-12.19-5.3-15-27.86c0,0-65.52-44.41-55.1-69.78,0,0-12,5.15-19.46,2.15C1554.39,293.61,1556.3,237.63,1591.61,245.78Z"/><path class="cls-20" d="M1446.87,419.83c-4.37-1.41-7-26.08,7.26-33.19s31.63,13.85,15,22.14,25.37,37.11,25.37,37.11-22.32,1.42-14.61,16.93,27.71,23.36,27.71,23.36-13.83,4.55-4.89,22.53,32.65,19.37,39.2,32.55-1.86,24.13-1.86,24.13c-4.24-8.53-21.9-.25-31.09,4.31s-13.93-1.27-19.32-12.13-31.91-4.44-45.39-3.38-.4-11.57-7.33-25.5-21.63.54-21.63.54,6-19.63,21-15.66,15.27,23.49,15.27,23.49,13.57,12.81,28.58,5.35,29.6,21.89,29.6,21.89,17.86-13.3,27.43-4.18c0,0,2.76-21.25-17.54-26.61s-50.89-27.07-51.23-40.79c-.14-5.57,3.07-9.45,6.91-12.1-9,1.58-21.31-.55-31.85-17.78-19.23-31.45-1.12-32.67-1.12-32.67s-32.38-4.31-30.31-30.57a38.29,38.29,0,0,1,2.19-10.69c5.46,4.11,11.48,13.31,15.92,22.24C1439,429,1451.24,421.24,1446.87,419.83Z"/></g><path class="cls-21" d="M-109.62,691.82c2.39.27,1.85.57,0,.81l3,146.13H2116.93L2116,687c-39.07-1.73-87.68-22.84-111.87-9.92-36,19.21-141.26-4.62-182.91-9.87-46,0-59.26,6.77-99.58,15.52-42.77,9.27-135.89-8.61-176.81-15.52-19.08-3.32-34.72-14.84-61-16.94-31.17-2.49-55.09-4.89-83.32,2.83-54.22,14.82-88.57,19.75-158.52,19.75-111.41-25.78-212.63,2.65-327.21,9.88-55.83,0-105-10.87-148.36-28.22-68.7-27.52-133.29.81-201.2,11.28-46.37,0-93.22-1.41-140.23-1.41-61.42,0-116.36,16.93-178.85,16.93-40.15,0-67.47-3.4-97.55-14.1C110.12,653.5,84.89,657.7,36.83,663c-.58,1.21-35.45,9.6-40.64,11.29-30.73,10-71.78,9.66-105.81,14.89Z"/></svg>